  0
SECTION
  2
TABLES
  0
TABLE
  2
LAYER
 70
12
  0
LAYER
  2
CAGE-LONGERON
 70
0
 62
5
  6
CONTINUOUS
  0
LAYER
  2
CAGE-HOOP
 70
0
 62
1
  6
CONTINUOUS
  0
LAYER
  2
CAGE-DIAGONAL
 70
0
 62
3
  6
CONTINUOUS
  0
LAYER
  2
CAGE-SPAR
 70
0
 62
6
  6
CONTINUOUS
  0
LAYER
  2
CAGE-FRAME
 70
0
 62
4
  6
CONTINUOUS
  0
LAYER
  2
BOOM
 70
0
 62
2
  6
CONTINUOUS
  0
LAYER
  2
GEAR
 70
0
 62
30
  6
CONTINUOUS
  0
LAYER
  2
NODES
 70
0
 62
7
  6
CONTINUOUS
  0
LAYER
  2
NODE-TEXT
 70
0
 62
8
  6
CONTINUOUS
  0
LAYER
  2
REFERENCE
 70
0
 62
8
  6
CONTINUOUS
  0
LAYER
  2
DIM-TEXT
 70
0
 62
7
  6
CONTINUOUS
  0
LAYER
  2
OUTLINE
 70
0
 62
253
  6
CONTINUOUS
  0
ENDTAB
  0
ENDSEC
  0
SECTION
  2
ENTITIES
  0
LINE
  8
CAGE-LONGERON
 10
30.0000
 20
9.0000
 30
18.0000
 11
96.0000
 21
6.0000
 31
24.0000
  0
LINE
  8
CAGE-LONGERON
 10
30.0000
 20
-9.0000
 30
18.0000
 11
96.0000
 21
-6.0000
 31
24.0000
  0
LINE
  8
CAGE-LONGERON
 10
30.0000
 20
8.0000
 30
38.0000
 11
96.0000
 21
6.0000
 31
30.0000
  0
LINE
  8
CAGE-LONGERON
 10
30.0000
 20
-8.0000
 30
38.0000
 11
96.0000
 21
-6.0000
 31
30.0000
  0
LINE
  8
CAGE-LONGERON
 10
30.0000
 20
9.0000
 30
18.0000
 11
30.0000
 21
8.0000
 31
38.0000
  0
LINE
  8
CAGE-LONGERON
 10
30.0000
 20
-9.0000
 30
18.0000
 11
30.0000
 21
-8.0000
 31
38.0000
  0
LINE
  8
CAGE-DIAGONAL
 10
30.0000
 20
9.0000
 30
18.0000
 11
61.5000
 21
9.5000
 31
40.0000
  0
LINE
  8
CAGE-DIAGONAL
 10
30.0000
 20
-9.0000
 30
18.0000
 11
61.5000
 21
-9.5000
 31
40.0000
  0
LINE
  8
CAGE-DIAGONAL
 10
61.5000
 20
9.5000
 30
18.0000
 11
96.0000
 21
6.0000
 31
30.0000
  0
LINE
  8
CAGE-DIAGONAL
 10
61.5000
 20
-9.5000
 30
18.0000
 11
96.0000
 21
-6.0000
 31
30.0000
  0
LINE
  8
CAGE-HOOP
 10
61.5000
 20
9.5000
 30
18.0000
 11
61.5000
 21
9.5000
 31
40.0000
  0
LINE
  8
CAGE-HOOP
 10
61.5000
 20
-9.5000
 30
18.0000
 11
61.5000
 21
-9.5000
 31
40.0000
  0
LINE
  8
CAGE-HOOP
 10
61.5000
 20
9.5000
 30
40.0000
 11
61.5000
 21
8.0000
 31
55.0000
  0
LINE
  8
CAGE-HOOP
 10
61.5000
 20
-9.5000
 30
40.0000
 11
61.5000
 21
-8.0000
 31
55.0000
  0
LINE
  8
CAGE-FRAME
 10
80.5000
 20
7.5000
 30
20.0000
 11
80.5000
 21
8.0000
 31
55.0000
  0
LINE
  8
CAGE-FRAME
 10
80.5000
 20
-7.5000
 30
20.0000
 11
80.5000
 21
-8.0000
 31
55.0000
  0
LINE
  8
CAGE-FRAME
 10
96.0000
 20
6.0000
 30
24.0000
 11
96.0000
 21
6.0000
 31
30.0000
  0
LINE
  8
CAGE-FRAME
 10
96.0000
 20
-6.0000
 30
24.0000
 11
96.0000
 21
-6.0000
 31
30.0000
  0
LINE
  8
CAGE-FRAME
 10
30.0000
 20
-8.0000
 30
38.0000
 11
30.0000
 21
8.0000
 31
38.0000
  0
LINE
  8
CAGE-SPAR
 10
61.5000
 20
-8.0000
 30
55.0000
 11
61.5000
 21
8.0000
 31
55.0000
  0
LINE
  8
CAGE-SPAR
 10
80.5000
 20
-8.0000
 30
55.0000
 11
80.5000
 21
8.0000
 31
55.0000
  0
LINE
  8
CAGE-HOOP
 10
61.5000
 20
-9.5000
 30
40.0000
 11
61.5000
 21
9.5000
 31
40.0000
  0
LINE
  8
CAGE-FRAME
 10
96.0000
 20
-6.0000
 30
24.0000
 11
96.0000
 21
6.0000
 31
24.0000
  0
LINE
  8
CAGE-FRAME
 10
96.0000
 20
-6.0000
 30
30.0000
 11
96.0000
 21
6.0000
 31
30.0000
  0
LINE
  8
BOOM
 10
96.0000
 20
0.0000
 30
27.0000
 11
184.0000
 21
0.0000
 31
27.0000
  0
LINE
  8
GEAR
 10
30.0000
 20
0.0000
 30
17.0000
 11
15.0000
 21
0.0000
 31
10.0000
  0
LINE
  8
GEAR
 10
14.0000
 20
0.0000
 30
30.0000
 11
15.0000
 21
0.0000
 31
10.0000
  0
LINE
  8
GEAR
 10
58.0000
 20
10.0000
 30
17.0000
 11
70.5000
 21
28.0000
 31
14.5000
  0
LINE
  8
GEAR
 10
58.0000
 20
-10.0000
 30
17.0000
 11
70.5000
 21
-28.0000
 31
14.5000
  0
LINE
  8
GEAR
 10
70.5000
 20
28.0000
 30
14.5000
 11
64.0000
 21
14.0000
 31
30.0000
  0
LINE
  8
GEAR
 10
70.5000
 20
-28.0000
 30
14.5000
 11
64.0000
 21
-14.0000
 31
30.0000
  0
POINT
  8
NODES
 10
96.0000
 20
-6.0000
 30
24.0000
  0
TEXT
  8
NODE-TEXT
 10
96.6000
 20
-6.0000
 30
24.6000
 40
0.7000
  1
AL_L
  0
POINT
  8
NODES
 10
96.0000
 20
6.0000
 30
24.0000
  0
TEXT
  8
NODE-TEXT
 10
96.6000
 20
6.0000
 30
24.6000
 40
0.7000
  1
AL_R
  0
POINT
  8
NODES
 10
96.0000
 20
-6.0000
 30
30.0000
  0
TEXT
  8
NODE-TEXT
 10
96.6000
 20
-6.0000
 30
30.6000
 40
0.7000
  1
AU_L
  0
POINT
  8
NODES
 10
96.0000
 20
6.0000
 30
30.0000
  0
TEXT
  8
NODE-TEXT
 10
96.6000
 20
6.0000
 30
30.6000
 40
0.7000
  1
AU_R
  0
POINT
  8
NODES
 10
96.0000
 20
0.0000
 30
27.0000
  0
TEXT
  8
NODE-TEXT
 10
96.6000
 20
0.0000
 30
27.6000
 40
0.7000
  1
BM_C
  0
POINT
  8
NODES
 10
70.5000
 20
-28.0000
 30
14.5000
  0
TEXT
  8
NODE-TEXT
 10
71.1000
 20
-28.0000
 30
15.1000
 40
0.7000
  1
MAX_L
  0
POINT
  8
NODES
 10
70.5000
 20
28.0000
 30
14.5000
  0
TEXT
  8
NODE-TEXT
 10
71.1000
 20
28.0000
 30
15.1000
 40
0.7000
  1
MAX_R
  0
POINT
  8
NODES
 10
58.0000
 20
-10.0000
 30
17.0000
  0
TEXT
  8
NODE-TEXT
 10
58.6000
 20
-10.0000
 30
17.6000
 40
0.7000
  1
MGF_L
  0
POINT
  8
NODES
 10
58.0000
 20
10.0000
 30
17.0000
  0
TEXT
  8
NODE-TEXT
 10
58.6000
 20
10.0000
 30
17.6000
 40
0.7000
  1
MGF_R
  0
POINT
  8
NODES
 10
64.0000
 20
-14.0000
 30
30.0000
  0
TEXT
  8
NODE-TEXT
 10
64.6000
 20
-14.0000
 30
30.6000
 40
0.7000
  1
MGS_L
  0
POINT
  8
NODES
 10
64.0000
 20
14.0000
 30
30.0000
  0
TEXT
  8
NODE-TEXT
 10
64.6000
 20
14.0000
 30
30.6000
 40
0.7000
  1
MGS_R
  0
POINT
  8
NODES
 10
61.5000
 20
-9.5000
 30
18.0000
  0
TEXT
  8
NODE-TEXT
 10
62.1000
 20
-9.5000
 30
18.6000
 40
0.7000
  1
MH_L
  0
POINT
  8
NODES
 10
61.5000
 20
9.5000
 30
18.0000
  0
TEXT
  8
NODE-TEXT
 10
62.1000
 20
9.5000
 30
18.6000
 40
0.7000
  1
MH_R
  0
POINT
  8
NODES
 10
61.5000
 20
-8.0000
 30
55.0000
  0
TEXT
  8
NODE-TEXT
 10
62.1000
 20
-8.0000
 30
55.6000
 40
0.7000
  1
MP_L
  0
POINT
  8
NODES
 10
61.5000
 20
8.0000
 30
55.0000
  0
TEXT
  8
NODE-TEXT
 10
62.1000
 20
8.0000
 30
55.6000
 40
0.7000
  1
MP_R
  0
POINT
  8
NODES
 10
61.5000
 20
-9.5000
 30
40.0000
  0
TEXT
  8
NODE-TEXT
 10
62.1000
 20
-9.5000
 30
40.6000
 40
0.7000
  1
MS_L
  0
POINT
  8
NODES
 10
61.5000
 20
9.5000
 30
40.0000
  0
TEXT
  8
NODE-TEXT
 10
62.1000
 20
9.5000
 30
40.6000
 40
0.7000
  1
MS_R
  0
POINT
  8
NODES
 10
15.0000
 20
0.0000
 30
10.0000
  0
TEXT
  8
NODE-TEXT
 10
15.6000
 20
0.0000
 30
10.6000
 40
0.7000
  1
NAX_C
  0
POINT
  8
NODES
 10
30.0000
 20
-9.0000
 30
18.0000
  0
TEXT
  8
NODE-TEXT
 10
30.6000
 20
-9.0000
 30
18.6000
 40
0.7000
  1
NB_L
  0
POINT
  8
NODES
 10
30.0000
 20
9.0000
 30
18.0000
  0
TEXT
  8
NODE-TEXT
 10
30.6000
 20
9.0000
 30
18.6000
 40
0.7000
  1
NB_R
  0
POINT
  8
NODES
 10
14.0000
 20
0.0000
 30
30.0000
  0
TEXT
  8
NODE-TEXT
 10
14.6000
 20
0.0000
 30
30.6000
 40
0.7000
  1
NGF_C
  0
POINT
  8
NODES
 10
30.0000
 20
0.0000
 30
17.0000
  0
TEXT
  8
NODE-TEXT
 10
30.6000
 20
0.0000
 30
17.6000
 40
0.7000
  1
NGU_C
  0
POINT
  8
NODES
 10
30.0000
 20
-8.0000
 30
38.0000
  0
TEXT
  8
NODE-TEXT
 10
30.6000
 20
-8.0000
 30
38.6000
 40
0.7000
  1
NT_L
  0
POINT
  8
NODES
 10
30.0000
 20
8.0000
 30
38.0000
  0
TEXT
  8
NODE-TEXT
 10
30.6000
 20
8.0000
 30
38.6000
 40
0.7000
  1
NT_R
  0
POINT
  8
NODES
 10
80.5000
 20
-7.5000
 30
20.0000
  0
TEXT
  8
NODE-TEXT
 10
81.1000
 20
-7.5000
 30
20.6000
 40
0.7000
  1
RF_L
  0
POINT
  8
NODES
 10
80.5000
 20
7.5000
 30
20.0000
  0
TEXT
  8
NODE-TEXT
 10
81.1000
 20
7.5000
 30
20.6000
 40
0.7000
  1
RF_R
  0
POINT
  8
NODES
 10
80.5000
 20
-8.0000
 30
55.0000
  0
TEXT
  8
NODE-TEXT
 10
81.1000
 20
-8.0000
 30
55.6000
 40
0.7000
  1
RP_L
  0
POINT
  8
NODES
 10
80.5000
 20
8.0000
 30
55.0000
  0
TEXT
  8
NODE-TEXT
 10
81.1000
 20
8.0000
 30
55.6000
 40
0.7000
  1
RP_R
  0
POINT
  8
NODES
 10
184.0000
 20
0.0000
 30
27.0000
  0
TEXT
  8
NODE-TEXT
 10
184.6000
 20
0.0000
 30
27.6000
 40
0.7000
  1
TP_C
  0
LINE
  8
REFERENCE
 10
0
 20
0
 30
40
 11
200
 21
0
 31
40
  0
TEXT
  8
REFERENCE
 10
201
 20
0
 30
40
 40
1.0000
  1
THRUSTLINE z=40
  0
LINE
  8
REFERENCE
 10
-10
 20
0
 30
0
 11
200
 21
0
 31
0
  0
TEXT
  8
REFERENCE
 10
201
 20
0
 30
0
 40
1.0000
  1
GROUND z=0
  0
LINE
  8
REFERENCE
 10
0
 20
-24
 30
0
 11
0
 21
24
 31
0
  0
TEXT
  8
REFERENCE
 10
0
 20
25
 30
0
 40
1.0000
  1
STA 0.0 PROP PLANE
  0
LINE
  8
REFERENCE
 10
30.0000
 20
-24
 30
0
 11
30.0000
 21
24
 31
0
  0
TEXT
  8
REFERENCE
 10
30.0000
 20
25
 30
0
 40
1.0000
  1
STA 30.0 NOSE BOW
  0
LINE
  8
REFERENCE
 10
63.0000
 20
-24
 30
0
 11
63.0000
 21
24
 31
0
  0
TEXT
  8
REFERENCE
 10
63.0000
 20
25
 30
0
 40
1.0000
  1
STA 63.0 CG
  0
LINE
  8
REFERENCE
 10
61.5000
 20
-24
 30
0
 11
61.5000
 21
24
 31
0
  0
TEXT
  8
REFERENCE
 10
61.5000
 20
25
 30
0
 40
1.0000
  1
STA 61.5 MAIN HOOP / FRONT SPAR
  0
LINE
  8
REFERENCE
 10
80.5000
 20
-24
 30
0
 11
80.5000
 21
24
 31
0
  0
TEXT
  8
REFERENCE
 10
80.5000
 20
25
 30
0
 40
1.0000
  1
STA 80.5 REAR SPAR
  0
LINE
  8
REFERENCE
 10
96.0000
 20
-24
 30
0
 11
96.0000
 21
24
 31
0
  0
TEXT
  8
REFERENCE
 10
96.0000
 20
25
 30
0
 40
1.0000
  1
STA 96.0 AFT FRAME
  0
LINE
  8
REFERENCE
 10
184.0000
 20
-24
 30
0
 11
184.0000
 21
24
 31
0
  0
TEXT
  8
REFERENCE
 10
184.0000
 20
25
 30
0
 40
1.0000
  1
STA 184.0 TAIL
  0
ENDSEC
  0
EOF
