  0
SECTION
  2
TABLES
  0
TABLE
  2
LAYER
 70
12
  0
LAYER
  2
CAGE-LONGERON
 70
0
 62
5
  6
CONTINUOUS
  0
LAYER
  2
CAGE-HOOP
 70
0
 62
1
  6
CONTINUOUS
  0
LAYER
  2
CAGE-DIAGONAL
 70
0
 62
3
  6
CONTINUOUS
  0
LAYER
  2
CAGE-SPAR
 70
0
 62
6
  6
CONTINUOUS
  0
LAYER
  2
CAGE-FRAME
 70
0
 62
4
  6
CONTINUOUS
  0
LAYER
  2
BOOM
 70
0
 62
2
  6
CONTINUOUS
  0
LAYER
  2
GEAR
 70
0
 62
30
  6
CONTINUOUS
  0
LAYER
  2
NODES
 70
0
 62
7
  6
CONTINUOUS
  0
LAYER
  2
NODE-TEXT
 70
0
 62
8
  6
CONTINUOUS
  0
LAYER
  2
REFERENCE
 70
0
 62
8
  6
CONTINUOUS
  0
LAYER
  2
DIM-TEXT
 70
0
 62
7
  6
CONTINUOUS
  0
LAYER
  2
OUTLINE
 70
0
 62
253
  6
CONTINUOUS
  0
ENDTAB
  0
ENDSEC
  0
SECTION
  2
ENTITIES
  0
LINE
  8
CAGE-LONGERON
 10
30.0000
 20
18.0000
 30
0.0000
 11
96.0000
 21
24.0000
 31
0.0000
  0
LINE
  8
CAGE-LONGERON
 10
30.0000
 20
18.0000
 30
0.0000
 11
96.0000
 21
24.0000
 31
0.0000
  0
LINE
  8
CAGE-LONGERON
 10
30.0000
 20
38.0000
 30
0.0000
 11
96.0000
 21
30.0000
 31
0.0000
  0
LINE
  8
CAGE-LONGERON
 10
30.0000
 20
38.0000
 30
0.0000
 11
96.0000
 21
30.0000
 31
0.0000
  0
LINE
  8
CAGE-LONGERON
 10
30.0000
 20
18.0000
 30
0.0000
 11
30.0000
 21
38.0000
 31
0.0000
  0
LINE
  8
CAGE-LONGERON
 10
30.0000
 20
18.0000
 30
0.0000
 11
30.0000
 21
38.0000
 31
0.0000
  0
LINE
  8
CAGE-DIAGONAL
 10
30.0000
 20
18.0000
 30
0.0000
 11
61.5000
 21
40.0000
 31
0.0000
  0
LINE
  8
CAGE-DIAGONAL
 10
30.0000
 20
18.0000
 30
0.0000
 11
61.5000
 21
40.0000
 31
0.0000
  0
LINE
  8
CAGE-DIAGONAL
 10
61.5000
 20
18.0000
 30
0.0000
 11
96.0000
 21
30.0000
 31
0.0000
  0
LINE
  8
CAGE-DIAGONAL
 10
61.5000
 20
18.0000
 30
0.0000
 11
96.0000
 21
30.0000
 31
0.0000
  0
LINE
  8
CAGE-HOOP
 10
61.5000
 20
18.0000
 30
0.0000
 11
61.5000
 21
40.0000
 31
0.0000
  0
LINE
  8
CAGE-HOOP
 10
61.5000
 20
18.0000
 30
0.0000
 11
61.5000
 21
40.0000
 31
0.0000
  0
LINE
  8
CAGE-HOOP
 10
61.5000
 20
40.0000
 30
0.0000
 11
61.5000
 21
55.0000
 31
0.0000
  0
LINE
  8
CAGE-HOOP
 10
61.5000
 20
40.0000
 30
0.0000
 11
61.5000
 21
55.0000
 31
0.0000
  0
LINE
  8
CAGE-FRAME
 10
80.5000
 20
20.0000
 30
0.0000
 11
80.5000
 21
55.0000
 31
0.0000
  0
LINE
  8
CAGE-FRAME
 10
80.5000
 20
20.0000
 30
0.0000
 11
80.5000
 21
55.0000
 31
0.0000
  0
LINE
  8
CAGE-FRAME
 10
96.0000
 20
24.0000
 30
0.0000
 11
96.0000
 21
30.0000
 31
0.0000
  0
LINE
  8
CAGE-FRAME
 10
96.0000
 20
24.0000
 30
0.0000
 11
96.0000
 21
30.0000
 31
0.0000
  0
LINE
  8
CAGE-FRAME
 10
30.0000
 20
38.0000
 30
0.0000
 11
30.0000
 21
38.0000
 31
0.0000
  0
LINE
  8
CAGE-SPAR
 10
61.5000
 20
55.0000
 30
0.0000
 11
61.5000
 21
55.0000
 31
0.0000
  0
LINE
  8
CAGE-SPAR
 10
80.5000
 20
55.0000
 30
0.0000
 11
80.5000
 21
55.0000
 31
0.0000
  0
LINE
  8
CAGE-HOOP
 10
61.5000
 20
40.0000
 30
0.0000
 11
61.5000
 21
40.0000
 31
0.0000
  0
LINE
  8
CAGE-FRAME
 10
96.0000
 20
24.0000
 30
0.0000
 11
96.0000
 21
24.0000
 31
0.0000
  0
LINE
  8
CAGE-FRAME
 10
96.0000
 20
30.0000
 30
0.0000
 11
96.0000
 21
30.0000
 31
0.0000
  0
LINE
  8
BOOM
 10
96.0000
 20
27.0000
 30
0.0000
 11
184.0000
 21
27.0000
 31
0.0000
  0
LINE
  8
GEAR
 10
30.0000
 20
17.0000
 30
0.0000
 11
15.0000
 21
10.0000
 31
0.0000
  0
LINE
  8
GEAR
 10
14.0000
 20
30.0000
 30
0.0000
 11
15.0000
 21
10.0000
 31
0.0000
  0
LINE
  8
GEAR
 10
58.0000
 20
17.0000
 30
0.0000
 11
70.5000
 21
14.5000
 31
0.0000
  0
LINE
  8
GEAR
 10
58.0000
 20
17.0000
 30
0.0000
 11
70.5000
 21
14.5000
 31
0.0000
  0
LINE
  8
GEAR
 10
70.5000
 20
14.5000
 30
0.0000
 11
64.0000
 21
30.0000
 31
0.0000
  0
LINE
  8
GEAR
 10
70.5000
 20
14.5000
 30
0.0000
 11
64.0000
 21
30.0000
 31
0.0000
  0
TEXT
  8
DIM-TEXT
 10
0
 20
70
 30
0.0000
 40
2.5000
  1
SIDE  (looking left, nose left)
  0
LINE
  8
CAGE-LONGERON
 10
30.0000
 20
-51.0000
 30
0.0000
 11
96.0000
 21
-54.0000
 31
0.0000
  0
LINE
  8
CAGE-LONGERON
 10
30.0000
 20
-69.0000
 30
0.0000
 11
96.0000
 21
-66.0000
 31
0.0000
  0
LINE
  8
CAGE-LONGERON
 10
30.0000
 20
-52.0000
 30
0.0000
 11
96.0000
 21
-54.0000
 31
0.0000
  0
LINE
  8
CAGE-LONGERON
 10
30.0000
 20
-68.0000
 30
0.0000
 11
96.0000
 21
-66.0000
 31
0.0000
  0
LINE
  8
CAGE-LONGERON
 10
30.0000
 20
-51.0000
 30
0.0000
 11
30.0000
 21
-52.0000
 31
0.0000
  0
LINE
  8
CAGE-LONGERON
 10
30.0000
 20
-69.0000
 30
0.0000
 11
30.0000
 21
-68.0000
 31
0.0000
  0
LINE
  8
CAGE-DIAGONAL
 10
30.0000
 20
-51.0000
 30
0.0000
 11
61.5000
 21
-50.5000
 31
0.0000
  0
LINE
  8
CAGE-DIAGONAL
 10
30.0000
 20
-69.0000
 30
0.0000
 11
61.5000
 21
-69.5000
 31
0.0000
  0
LINE
  8
CAGE-DIAGONAL
 10
61.5000
 20
-50.5000
 30
0.0000
 11
96.0000
 21
-54.0000
 31
0.0000
  0
LINE
  8
CAGE-DIAGONAL
 10
61.5000
 20
-69.5000
 30
0.0000
 11
96.0000
 21
-66.0000
 31
0.0000
  0
LINE
  8
CAGE-HOOP
 10
61.5000
 20
-50.5000
 30
0.0000
 11
61.5000
 21
-50.5000
 31
0.0000
  0
LINE
  8
CAGE-HOOP
 10
61.5000
 20
-69.5000
 30
0.0000
 11
61.5000
 21
-69.5000
 31
0.0000
  0
LINE
  8
CAGE-HOOP
 10
61.5000
 20
-50.5000
 30
0.0000
 11
61.5000
 21
-52.0000
 31
0.0000
  0
LINE
  8
CAGE-HOOP
 10
61.5000
 20
-69.5000
 30
0.0000
 11
61.5000
 21
-68.0000
 31
0.0000
  0
LINE
  8
CAGE-FRAME
 10
80.5000
 20
-52.5000
 30
0.0000
 11
80.5000
 21
-52.0000
 31
0.0000
  0
LINE
  8
CAGE-FRAME
 10
80.5000
 20
-67.5000
 30
0.0000
 11
80.5000
 21
-68.0000
 31
0.0000
  0
LINE
  8
CAGE-FRAME
 10
96.0000
 20
-54.0000
 30
0.0000
 11
96.0000
 21
-54.0000
 31
0.0000
  0
LINE
  8
CAGE-FRAME
 10
96.0000
 20
-66.0000
 30
0.0000
 11
96.0000
 21
-66.0000
 31
0.0000
  0
LINE
  8
CAGE-FRAME
 10
30.0000
 20
-68.0000
 30
0.0000
 11
30.0000
 21
-52.0000
 31
0.0000
  0
LINE
  8
CAGE-SPAR
 10
61.5000
 20
-68.0000
 30
0.0000
 11
61.5000
 21
-52.0000
 31
0.0000
  0
LINE
  8
CAGE-SPAR
 10
80.5000
 20
-68.0000
 30
0.0000
 11
80.5000
 21
-52.0000
 31
0.0000
  0
LINE
  8
CAGE-HOOP
 10
61.5000
 20
-69.5000
 30
0.0000
 11
61.5000
 21
-50.5000
 31
0.0000
  0
LINE
  8
CAGE-FRAME
 10
96.0000
 20
-66.0000
 30
0.0000
 11
96.0000
 21
-54.0000
 31
0.0000
  0
LINE
  8
CAGE-FRAME
 10
96.0000
 20
-66.0000
 30
0.0000
 11
96.0000
 21
-54.0000
 31
0.0000
  0
LINE
  8
BOOM
 10
96.0000
 20
-60.0000
 30
0.0000
 11
184.0000
 21
-60.0000
 31
0.0000
  0
LINE
  8
GEAR
 10
30.0000
 20
-60.0000
 30
0.0000
 11
15.0000
 21
-60.0000
 31
0.0000
  0
LINE
  8
GEAR
 10
14.0000
 20
-60.0000
 30
0.0000
 11
15.0000
 21
-60.0000
 31
0.0000
  0
LINE
  8
GEAR
 10
58.0000
 20
-50.0000
 30
0.0000
 11
70.5000
 21
-32.0000
 31
0.0000
  0
LINE
  8
GEAR
 10
58.0000
 20
-70.0000
 30
0.0000
 11
70.5000
 21
-88.0000
 31
0.0000
  0
LINE
  8
GEAR
 10
70.5000
 20
-32.0000
 30
0.0000
 11
64.0000
 21
-46.0000
 31
0.0000
  0
LINE
  8
GEAR
 10
70.5000
 20
-88.0000
 30
0.0000
 11
64.0000
 21
-74.0000
 31
0.0000
  0
TEXT
  8
DIM-TEXT
 10
0
 20
-28.0000
 30
0.0000
 40
2.5000
  1
TOP  (nose left)
  0
LINE
  8
CAGE-LONGERON
 10
239.0000
 20
18.0000
 30
0.0000
 11
236.0000
 21
24.0000
 31
0.0000
  0
LINE
  8
CAGE-LONGERON
 10
221.0000
 20
18.0000
 30
0.0000
 11
224.0000
 21
24.0000
 31
0.0000
  0
LINE
  8
CAGE-LONGERON
 10
238.0000
 20
38.0000
 30
0.0000
 11
236.0000
 21
30.0000
 31
0.0000
  0
LINE
  8
CAGE-LONGERON
 10
222.0000
 20
38.0000
 30
0.0000
 11
224.0000
 21
30.0000
 31
0.0000
  0
LINE
  8
CAGE-LONGERON
 10
239.0000
 20
18.0000
 30
0.0000
 11
238.0000
 21
38.0000
 31
0.0000
  0
LINE
  8
CAGE-LONGERON
 10
221.0000
 20
18.0000
 30
0.0000
 11
222.0000
 21
38.0000
 31
0.0000
  0
LINE
  8
CAGE-DIAGONAL
 10
239.0000
 20
18.0000
 30
0.0000
 11
239.5000
 21
40.0000
 31
0.0000
  0
LINE
  8
CAGE-DIAGONAL
 10
221.0000
 20
18.0000
 30
0.0000
 11
220.5000
 21
40.0000
 31
0.0000
  0
LINE
  8
CAGE-DIAGONAL
 10
239.5000
 20
18.0000
 30
0.0000
 11
236.0000
 21
30.0000
 31
0.0000
  0
LINE
  8
CAGE-DIAGONAL
 10
220.5000
 20
18.0000
 30
0.0000
 11
224.0000
 21
30.0000
 31
0.0000
  0
LINE
  8
CAGE-HOOP
 10
239.5000
 20
18.0000
 30
0.0000
 11
239.5000
 21
40.0000
 31
0.0000
  0
LINE
  8
CAGE-HOOP
 10
220.5000
 20
18.0000
 30
0.0000
 11
220.5000
 21
40.0000
 31
0.0000
  0
LINE
  8
CAGE-HOOP
 10
239.5000
 20
40.0000
 30
0.0000
 11
238.0000
 21
55.0000
 31
0.0000
  0
LINE
  8
CAGE-HOOP
 10
220.5000
 20
40.0000
 30
0.0000
 11
222.0000
 21
55.0000
 31
0.0000
  0
LINE
  8
CAGE-FRAME
 10
237.5000
 20
20.0000
 30
0.0000
 11
238.0000
 21
55.0000
 31
0.0000
  0
LINE
  8
CAGE-FRAME
 10
222.5000
 20
20.0000
 30
0.0000
 11
222.0000
 21
55.0000
 31
0.0000
  0
LINE
  8
CAGE-FRAME
 10
236.0000
 20
24.0000
 30
0.0000
 11
236.0000
 21
30.0000
 31
0.0000
  0
LINE
  8
CAGE-FRAME
 10
224.0000
 20
24.0000
 30
0.0000
 11
224.0000
 21
30.0000
 31
0.0000
  0
LINE
  8
CAGE-FRAME
 10
222.0000
 20
38.0000
 30
0.0000
 11
238.0000
 21
38.0000
 31
0.0000
  0
LINE
  8
CAGE-SPAR
 10
222.0000
 20
55.0000
 30
0.0000
 11
238.0000
 21
55.0000
 31
0.0000
  0
LINE
  8
CAGE-SPAR
 10
222.0000
 20
55.0000
 30
0.0000
 11
238.0000
 21
55.0000
 31
0.0000
  0
LINE
  8
CAGE-HOOP
 10
220.5000
 20
40.0000
 30
0.0000
 11
239.5000
 21
40.0000
 31
0.0000
  0
LINE
  8
CAGE-FRAME
 10
224.0000
 20
24.0000
 30
0.0000
 11
236.0000
 21
24.0000
 31
0.0000
  0
LINE
  8
CAGE-FRAME
 10
224.0000
 20
30.0000
 30
0.0000
 11
236.0000
 21
30.0000
 31
0.0000
  0
LINE
  8
BOOM
 10
230.0000
 20
27.0000
 30
0.0000
 11
230.0000
 21
27.0000
 31
0.0000
  0
LINE
  8
GEAR
 10
230.0000
 20
17.0000
 30
0.0000
 11
230.0000
 21
10.0000
 31
0.0000
  0
LINE
  8
GEAR
 10
230.0000
 20
30.0000
 30
0.0000
 11
230.0000
 21
10.0000
 31
0.0000
  0
LINE
  8
GEAR
 10
240.0000
 20
17.0000
 30
0.0000
 11
258.0000
 21
14.5000
 31
0.0000
  0
LINE
  8
GEAR
 10
220.0000
 20
17.0000
 30
0.0000
 11
202.0000
 21
14.5000
 31
0.0000
  0
LINE
  8
GEAR
 10
258.0000
 20
14.5000
 30
0.0000
 11
244.0000
 21
30.0000
 31
0.0000
  0
LINE
  8
GEAR
 10
202.0000
 20
14.5000
 30
0.0000
 11
216.0000
 21
30.0000
 31
0.0000
  0
TEXT
  8
DIM-TEXT
 10
204.0000
 20
70
 30
0.0000
 40
2.5000
  1
FRONT  (from the propeller)
  0
LINE
  8
REFERENCE
 10
0
 20
-4
 30
0
 11
0
 21
-1.5000
 31
0
  0
TEXT
  8
DIM-TEXT
 10
-2.5000
 20
-8
 30
0
 40
1.6000
  1
0
  0
LINE
  8
REFERENCE
 10
12
 20
-4
 30
0
 11
12
 21
-1.5000
 31
0
  0
TEXT
  8
DIM-TEXT
 10
9.5000
 20
-8
 30
0
 40
1.6000
  1
12
  0
LINE
  8
REFERENCE
 10
24
 20
-4
 30
0
 11
24
 21
-1.5000
 31
0
  0
TEXT
  8
DIM-TEXT
 10
21.5000
 20
-8
 30
0
 40
1.6000
  1
24
  0
LINE
  8
REFERENCE
 10
36
 20
-4
 30
0
 11
36
 21
-1.5000
 31
0
  0
TEXT
  8
DIM-TEXT
 10
33.5000
 20
-8
 30
0
 40
1.6000
  1
36
  0
LINE
  8
REFERENCE
 10
48
 20
-4
 30
0
 11
48
 21
-1.5000
 31
0
  0
TEXT
  8
DIM-TEXT
 10
45.5000
 20
-8
 30
0
 40
1.6000
  1
48
  0
LINE
  8
REFERENCE
 10
60
 20
-4
 30
0
 11
60
 21
-1.5000
 31
0
  0
TEXT
  8
DIM-TEXT
 10
57.5000
 20
-8
 30
0
 40
1.6000
  1
60
  0
LINE
  8
REFERENCE
 10
72
 20
-4
 30
0
 11
72
 21
-1.5000
 31
0
  0
TEXT
  8
DIM-TEXT
 10
69.5000
 20
-8
 30
0
 40
1.6000
  1
72
  0
LINE
  8
REFERENCE
 10
84
 20
-4
 30
0
 11
84
 21
-1.5000
 31
0
  0
TEXT
  8
DIM-TEXT
 10
81.5000
 20
-8
 30
0
 40
1.6000
  1
84
  0
LINE
  8
REFERENCE
 10
96
 20
-4
 30
0
 11
96
 21
-1.5000
 31
0
  0
TEXT
  8
DIM-TEXT
 10
93.5000
 20
-8
 30
0
 40
1.6000
  1
96
  0
LINE
  8
REFERENCE
 10
108
 20
-4
 30
0
 11
108
 21
-1.5000
 31
0
  0
TEXT
  8
DIM-TEXT
 10
105.5000
 20
-8
 30
0
 40
1.6000
  1
108
  0
LINE
  8
REFERENCE
 10
120
 20
-4
 30
0
 11
120
 21
-1.5000
 31
0
  0
TEXT
  8
DIM-TEXT
 10
117.5000
 20
-8
 30
0
 40
1.6000
  1
120
  0
LINE
  8
REFERENCE
 10
132
 20
-4
 30
0
 11
132
 21
-1.5000
 31
0
  0
TEXT
  8
DIM-TEXT
 10
129.5000
 20
-8
 30
0
 40
1.6000
  1
132
  0
LINE
  8
REFERENCE
 10
144
 20
-4
 30
0
 11
144
 21
-1.5000
 31
0
  0
TEXT
  8
DIM-TEXT
 10
141.5000
 20
-8
 30
0
 40
1.6000
  1
144
  0
LINE
  8
REFERENCE
 10
156
 20
-4
 30
0
 11
156
 21
-1.5000
 31
0
  0
TEXT
  8
DIM-TEXT
 10
153.5000
 20
-8
 30
0
 40
1.6000
  1
156
  0
LINE
  8
REFERENCE
 10
168
 20
-4
 30
0
 11
168
 21
-1.5000
 31
0
  0
TEXT
  8
DIM-TEXT
 10
165.5000
 20
-8
 30
0
 40
1.6000
  1
168
  0
LINE
  8
REFERENCE
 10
180
 20
-4
 30
0
 11
180
 21
-1.5000
 31
0
  0
TEXT
  8
DIM-TEXT
 10
177.5000
 20
-8
 30
0
 40
1.6000
  1
180
  0
LINE
  8
REFERENCE
 10
0
 20
-2.5000
 30
0
 11
184.0000
 21
-2.5000
 31
0
  0
TEXT
  8
DIM-TEXT
 10
188.0000
 20
-8
 30
0
 40
1.6000
  1
STATION, IN
  0
LINE
  8
REFERENCE
 10
-6
 20
0
 30
0
 11
184.0000
 21
0
 31
0
  0
TEXT
  8
DIM-TEXT
 10
188.0000
 20
0
 30
0
 40
1.6000
  1
WL 0 GROUND
  0
LINE
  8
REFERENCE
 10
-6
 20
40
 30
0
 11
184.0000
 21
40
 31
0
  0
TEXT
  8
DIM-TEXT
 10
188.0000
 20
40
 30
0
 40
1.6000
  1
WL 40 THRUSTLINE
  0
LINE
  8
REFERENCE
 10
-6
 20
55.0000
 30
0
 11
184.0000
 21
55.0000
 31
0
  0
TEXT
  8
DIM-TEXT
 10
188.0000
 20
55.0000
 30
0
 40
1.6000
  1
WL 55 CABIN ROOF
  0
POINT
  8
NODES
 10
96.0000
 20
24.0000
 30
0.0000
  0
TEXT
  8
NODE-TEXT
 10
96.5000
 20
24.5000
 30
0.0000
 40
0.9000
  1
AL_L
  0
POINT
  8
NODES
 10
96.0000
 20
-66.0000
 30
0.0000
  0
TEXT
  8
NODE-TEXT
 10
96.5000
 20
-65.5000
 30
0.0000
 40
0.9000
  1
AL_L
  0
POINT
  8
NODES
 10
224.0000
 20
24.0000
 30
0.0000
  0
TEXT
  8
NODE-TEXT
 10
224.5000
 20
24.5000
 30
0.0000
 40
0.9000
  1
AL_L
  0
POINT
  8
NODES
 10
96.0000
 20
24.0000
 30
0.0000
  0
TEXT
  8
NODE-TEXT
 10
96.5000
 20
24.5000
 30
0.0000
 40
0.9000
  1
AL_R
  0
POINT
  8
NODES
 10
96.0000
 20
-54.0000
 30
0.0000
  0
TEXT
  8
NODE-TEXT
 10
96.5000
 20
-53.5000
 30
0.0000
 40
0.9000
  1
AL_R
  0
POINT
  8
NODES
 10
236.0000
 20
24.0000
 30
0.0000
  0
TEXT
  8
NODE-TEXT
 10
236.5000
 20
24.5000
 30
0.0000
 40
0.9000
  1
AL_R
  0
POINT
  8
NODES
 10
96.0000
 20
30.0000
 30
0.0000
  0
TEXT
  8
NODE-TEXT
 10
96.5000
 20
30.5000
 30
0.0000
 40
0.9000
  1
AU_L
  0
POINT
  8
NODES
 10
96.0000
 20
-66.0000
 30
0.0000
  0
TEXT
  8
NODE-TEXT
 10
96.5000
 20
-65.5000
 30
0.0000
 40
0.9000
  1
AU_L
  0
POINT
  8
NODES
 10
224.0000
 20
30.0000
 30
0.0000
  0
TEXT
  8
NODE-TEXT
 10
224.5000
 20
30.5000
 30
0.0000
 40
0.9000
  1
AU_L
  0
POINT
  8
NODES
 10
96.0000
 20
30.0000
 30
0.0000
  0
TEXT
  8
NODE-TEXT
 10
96.5000
 20
30.5000
 30
0.0000
 40
0.9000
  1
AU_R
  0
POINT
  8
NODES
 10
96.0000
 20
-54.0000
 30
0.0000
  0
TEXT
  8
NODE-TEXT
 10
96.5000
 20
-53.5000
 30
0.0000
 40
0.9000
  1
AU_R
  0
POINT
  8
NODES
 10
236.0000
 20
30.0000
 30
0.0000
  0
TEXT
  8
NODE-TEXT
 10
236.5000
 20
30.5000
 30
0.0000
 40
0.9000
  1
AU_R
  0
POINT
  8
NODES
 10
96.0000
 20
27.0000
 30
0.0000
  0
TEXT
  8
NODE-TEXT
 10
96.5000
 20
27.5000
 30
0.0000
 40
0.9000
  1
BM_C
  0
POINT
  8
NODES
 10
96.0000
 20
-60.0000
 30
0.0000
  0
TEXT
  8
NODE-TEXT
 10
96.5000
 20
-59.5000
 30
0.0000
 40
0.9000
  1
BM_C
  0
POINT
  8
NODES
 10
230.0000
 20
27.0000
 30
0.0000
  0
TEXT
  8
NODE-TEXT
 10
230.5000
 20
27.5000
 30
0.0000
 40
0.9000
  1
BM_C
  0
POINT
  8
NODES
 10
70.5000
 20
14.5000
 30
0.0000
  0
TEXT
  8
NODE-TEXT
 10
71.0000
 20
15.0000
 30
0.0000
 40
0.9000
  1
MAX_L
  0
POINT
  8
NODES
 10
70.5000
 20
-88.0000
 30
0.0000
  0
TEXT
  8
NODE-TEXT
 10
71.0000
 20
-87.5000
 30
0.0000
 40
0.9000
  1
MAX_L
  0
POINT
  8
NODES
 10
202.0000
 20
14.5000
 30
0.0000
  0
TEXT
  8
NODE-TEXT
 10
202.5000
 20
15.0000
 30
0.0000
 40
0.9000
  1
MAX_L
  0
POINT
  8
NODES
 10
70.5000
 20
14.5000
 30
0.0000
  0
TEXT
  8
NODE-TEXT
 10
71.0000
 20
15.0000
 30
0.0000
 40
0.9000
  1
MAX_R
  0
POINT
  8
NODES
 10
70.5000
 20
-32.0000
 30
0.0000
  0
TEXT
  8
NODE-TEXT
 10
71.0000
 20
-31.5000
 30
0.0000
 40
0.9000
  1
MAX_R
  0
POINT
  8
NODES
 10
258.0000
 20
14.5000
 30
0.0000
  0
TEXT
  8
NODE-TEXT
 10
258.5000
 20
15.0000
 30
0.0000
 40
0.9000
  1
MAX_R
  0
POINT
  8
NODES
 10
58.0000
 20
17.0000
 30
0.0000
  0
TEXT
  8
NODE-TEXT
 10
58.5000
 20
17.5000
 30
0.0000
 40
0.9000
  1
MGF_L
  0
POINT
  8
NODES
 10
58.0000
 20
-70.0000
 30
0.0000
  0
TEXT
  8
NODE-TEXT
 10
58.5000
 20
-69.5000
 30
0.0000
 40
0.9000
  1
MGF_L
  0
POINT
  8
NODES
 10
220.0000
 20
17.0000
 30
0.0000
  0
TEXT
  8
NODE-TEXT
 10
220.5000
 20
17.5000
 30
0.0000
 40
0.9000
  1
MGF_L
  0
POINT
  8
NODES
 10
58.0000
 20
17.0000
 30
0.0000
  0
TEXT
  8
NODE-TEXT
 10
58.5000
 20
17.5000
 30
0.0000
 40
0.9000
  1
MGF_R
  0
POINT
  8
NODES
 10
58.0000
 20
-50.0000
 30
0.0000
  0
TEXT
  8
NODE-TEXT
 10
58.5000
 20
-49.5000
 30
0.0000
 40
0.9000
  1
MGF_R
  0
POINT
  8
NODES
 10
240.0000
 20
17.0000
 30
0.0000
  0
TEXT
  8
NODE-TEXT
 10
240.5000
 20
17.5000
 30
0.0000
 40
0.9000
  1
MGF_R
  0
POINT
  8
NODES
 10
64.0000
 20
30.0000
 30
0.0000
  0
TEXT
  8
NODE-TEXT
 10
64.5000
 20
30.5000
 30
0.0000
 40
0.9000
  1
MGS_L
  0
POINT
  8
NODES
 10
64.0000
 20
-74.0000
 30
0.0000
  0
TEXT
  8
NODE-TEXT
 10
64.5000
 20
-73.5000
 30
0.0000
 40
0.9000
  1
MGS_L
  0
POINT
  8
NODES
 10
216.0000
 20
30.0000
 30
0.0000
  0
TEXT
  8
NODE-TEXT
 10
216.5000
 20
30.5000
 30
0.0000
 40
0.9000
  1
MGS_L
  0
POINT
  8
NODES
 10
64.0000
 20
30.0000
 30
0.0000
  0
TEXT
  8
NODE-TEXT
 10
64.5000
 20
30.5000
 30
0.0000
 40
0.9000
  1
MGS_R
  0
POINT
  8
NODES
 10
64.0000
 20
-46.0000
 30
0.0000
  0
TEXT
  8
NODE-TEXT
 10
64.5000
 20
-45.5000
 30
0.0000
 40
0.9000
  1
MGS_R
  0
POINT
  8
NODES
 10
244.0000
 20
30.0000
 30
0.0000
  0
TEXT
  8
NODE-TEXT
 10
244.5000
 20
30.5000
 30
0.0000
 40
0.9000
  1
MGS_R
  0
POINT
  8
NODES
 10
61.5000
 20
18.0000
 30
0.0000
  0
TEXT
  8
NODE-TEXT
 10
62.0000
 20
18.5000
 30
0.0000
 40
0.9000
  1
MH_L
  0
POINT
  8
NODES
 10
61.5000
 20
-69.5000
 30
0.0000
  0
TEXT
  8
NODE-TEXT
 10
62.0000
 20
-69.0000
 30
0.0000
 40
0.9000
  1
MH_L
  0
POINT
  8
NODES
 10
220.5000
 20
18.0000
 30
0.0000
  0
TEXT
  8
NODE-TEXT
 10
221.0000
 20
18.5000
 30
0.0000
 40
0.9000
  1
MH_L
  0
POINT
  8
NODES
 10
61.5000
 20
18.0000
 30
0.0000
  0
TEXT
  8
NODE-TEXT
 10
62.0000
 20
18.5000
 30
0.0000
 40
0.9000
  1
MH_R
  0
POINT
  8
NODES
 10
61.5000
 20
-50.5000
 30
0.0000
  0
TEXT
  8
NODE-TEXT
 10
62.0000
 20
-50.0000
 30
0.0000
 40
0.9000
  1
MH_R
  0
POINT
  8
NODES
 10
239.5000
 20
18.0000
 30
0.0000
  0
TEXT
  8
NODE-TEXT
 10
240.0000
 20
18.5000
 30
0.0000
 40
0.9000
  1
MH_R
  0
POINT
  8
NODES
 10
61.5000
 20
55.0000
 30
0.0000
  0
TEXT
  8
NODE-TEXT
 10
62.0000
 20
55.5000
 30
0.0000
 40
0.9000
  1
MP_L
  0
POINT
  8
NODES
 10
61.5000
 20
-68.0000
 30
0.0000
  0
TEXT
  8
NODE-TEXT
 10
62.0000
 20
-67.5000
 30
0.0000
 40
0.9000
  1
MP_L
  0
POINT
  8
NODES
 10
222.0000
 20
55.0000
 30
0.0000
  0
TEXT
  8
NODE-TEXT
 10
222.5000
 20
55.5000
 30
0.0000
 40
0.9000
  1
MP_L
  0
POINT
  8
NODES
 10
61.5000
 20
55.0000
 30
0.0000
  0
TEXT
  8
NODE-TEXT
 10
62.0000
 20
55.5000
 30
0.0000
 40
0.9000
  1
MP_R
  0
POINT
  8
NODES
 10
61.5000
 20
-52.0000
 30
0.0000
  0
TEXT
  8
NODE-TEXT
 10
62.0000
 20
-51.5000
 30
0.0000
 40
0.9000
  1
MP_R
  0
POINT
  8
NODES
 10
238.0000
 20
55.0000
 30
0.0000
  0
TEXT
  8
NODE-TEXT
 10
238.5000
 20
55.5000
 30
0.0000
 40
0.9000
  1
MP_R
  0
POINT
  8
NODES
 10
61.5000
 20
40.0000
 30
0.0000
  0
TEXT
  8
NODE-TEXT
 10
62.0000
 20
40.5000
 30
0.0000
 40
0.9000
  1
MS_L
  0
POINT
  8
NODES
 10
61.5000
 20
-69.5000
 30
0.0000
  0
TEXT
  8
NODE-TEXT
 10
62.0000
 20
-69.0000
 30
0.0000
 40
0.9000
  1
MS_L
  0
POINT
  8
NODES
 10
220.5000
 20
40.0000
 30
0.0000
  0
TEXT
  8
NODE-TEXT
 10
221.0000
 20
40.5000
 30
0.0000
 40
0.9000
  1
MS_L
  0
POINT
  8
NODES
 10
61.5000
 20
40.0000
 30
0.0000
  0
TEXT
  8
NODE-TEXT
 10
62.0000
 20
40.5000
 30
0.0000
 40
0.9000
  1
MS_R
  0
POINT
  8
NODES
 10
61.5000
 20
-50.5000
 30
0.0000
  0
TEXT
  8
NODE-TEXT
 10
62.0000
 20
-50.0000
 30
0.0000
 40
0.9000
  1
MS_R
  0
POINT
  8
NODES
 10
239.5000
 20
40.0000
 30
0.0000
  0
TEXT
  8
NODE-TEXT
 10
240.0000
 20
40.5000
 30
0.0000
 40
0.9000
  1
MS_R
  0
POINT
  8
NODES
 10
15.0000
 20
10.0000
 30
0.0000
  0
TEXT
  8
NODE-TEXT
 10
15.5000
 20
10.5000
 30
0.0000
 40
0.9000
  1
NAX_C
  0
POINT
  8
NODES
 10
15.0000
 20
-60.0000
 30
0.0000
  0
TEXT
  8
NODE-TEXT
 10
15.5000
 20
-59.5000
 30
0.0000
 40
0.9000
  1
NAX_C
  0
POINT
  8
NODES
 10
230.0000
 20
10.0000
 30
0.0000
  0
TEXT
  8
NODE-TEXT
 10
230.5000
 20
10.5000
 30
0.0000
 40
0.9000
  1
NAX_C
  0
POINT
  8
NODES
 10
30.0000
 20
18.0000
 30
0.0000
  0
TEXT
  8
NODE-TEXT
 10
30.5000
 20
18.5000
 30
0.0000
 40
0.9000
  1
NB_L
  0
POINT
  8
NODES
 10
30.0000
 20
-69.0000
 30
0.0000
  0
TEXT
  8
NODE-TEXT
 10
30.5000
 20
-68.5000
 30
0.0000
 40
0.9000
  1
NB_L
  0
POINT
  8
NODES
 10
221.0000
 20
18.0000
 30
0.0000
  0
TEXT
  8
NODE-TEXT
 10
221.5000
 20
18.5000
 30
0.0000
 40
0.9000
  1
NB_L
  0
POINT
  8
NODES
 10
30.0000
 20
18.0000
 30
0.0000
  0
TEXT
  8
NODE-TEXT
 10
30.5000
 20
18.5000
 30
0.0000
 40
0.9000
  1
NB_R
  0
POINT
  8
NODES
 10
30.0000
 20
-51.0000
 30
0.0000
  0
TEXT
  8
NODE-TEXT
 10
30.5000
 20
-50.5000
 30
0.0000
 40
0.9000
  1
NB_R
  0
POINT
  8
NODES
 10
239.0000
 20
18.0000
 30
0.0000
  0
TEXT
  8
NODE-TEXT
 10
239.5000
 20
18.5000
 30
0.0000
 40
0.9000
  1
NB_R
  0
POINT
  8
NODES
 10
14.0000
 20
30.0000
 30
0.0000
  0
TEXT
  8
NODE-TEXT
 10
14.5000
 20
30.5000
 30
0.0000
 40
0.9000
  1
NGF_C
  0
POINT
  8
NODES
 10
14.0000
 20
-60.0000
 30
0.0000
  0
TEXT
  8
NODE-TEXT
 10
14.5000
 20
-59.5000
 30
0.0000
 40
0.9000
  1
NGF_C
  0
POINT
  8
NODES
 10
230.0000
 20
30.0000
 30
0.0000
  0
TEXT
  8
NODE-TEXT
 10
230.5000
 20
30.5000
 30
0.0000
 40
0.9000
  1
NGF_C
  0
POINT
  8
NODES
 10
30.0000
 20
17.0000
 30
0.0000
  0
TEXT
  8
NODE-TEXT
 10
30.5000
 20
17.5000
 30
0.0000
 40
0.9000
  1
NGU_C
  0
POINT
  8
NODES
 10
30.0000
 20
-60.0000
 30
0.0000
  0
TEXT
  8
NODE-TEXT
 10
30.5000
 20
-59.5000
 30
0.0000
 40
0.9000
  1
NGU_C
  0
POINT
  8
NODES
 10
230.0000
 20
17.0000
 30
0.0000
  0
TEXT
  8
NODE-TEXT
 10
230.5000
 20
17.5000
 30
0.0000
 40
0.9000
  1
NGU_C
  0
POINT
  8
NODES
 10
30.0000
 20
38.0000
 30
0.0000
  0
TEXT
  8
NODE-TEXT
 10
30.5000
 20
38.5000
 30
0.0000
 40
0.9000
  1
NT_L
  0
POINT
  8
NODES
 10
30.0000
 20
-68.0000
 30
0.0000
  0
TEXT
  8
NODE-TEXT
 10
30.5000
 20
-67.5000
 30
0.0000
 40
0.9000
  1
NT_L
  0
POINT
  8
NODES
 10
222.0000
 20
38.0000
 30
0.0000
  0
TEXT
  8
NODE-TEXT
 10
222.5000
 20
38.5000
 30
0.0000
 40
0.9000
  1
NT_L
  0
POINT
  8
NODES
 10
30.0000
 20
38.0000
 30
0.0000
  0
TEXT
  8
NODE-TEXT
 10
30.5000
 20
38.5000
 30
0.0000
 40
0.9000
  1
NT_R
  0
POINT
  8
NODES
 10
30.0000
 20
-52.0000
 30
0.0000
  0
TEXT
  8
NODE-TEXT
 10
30.5000
 20
-51.5000
 30
0.0000
 40
0.9000
  1
NT_R
  0
POINT
  8
NODES
 10
238.0000
 20
38.0000
 30
0.0000
  0
TEXT
  8
NODE-TEXT
 10
238.5000
 20
38.5000
 30
0.0000
 40
0.9000
  1
NT_R
  0
POINT
  8
NODES
 10
80.5000
 20
20.0000
 30
0.0000
  0
TEXT
  8
NODE-TEXT
 10
81.0000
 20
20.5000
 30
0.0000
 40
0.9000
  1
RF_L
  0
POINT
  8
NODES
 10
80.5000
 20
-67.5000
 30
0.0000
  0
TEXT
  8
NODE-TEXT
 10
81.0000
 20
-67.0000
 30
0.0000
 40
0.9000
  1
RF_L
  0
POINT
  8
NODES
 10
222.5000
 20
20.0000
 30
0.0000
  0
TEXT
  8
NODE-TEXT
 10
223.0000
 20
20.5000
 30
0.0000
 40
0.9000
  1
RF_L
  0
POINT
  8
NODES
 10
80.5000
 20
20.0000
 30
0.0000
  0
TEXT
  8
NODE-TEXT
 10
81.0000
 20
20.5000
 30
0.0000
 40
0.9000
  1
RF_R
  0
POINT
  8
NODES
 10
80.5000
 20
-52.5000
 30
0.0000
  0
TEXT
  8
NODE-TEXT
 10
81.0000
 20
-52.0000
 30
0.0000
 40
0.9000
  1
RF_R
  0
POINT
  8
NODES
 10
237.5000
 20
20.0000
 30
0.0000
  0
TEXT
  8
NODE-TEXT
 10
238.0000
 20
20.5000
 30
0.0000
 40
0.9000
  1
RF_R
  0
POINT
  8
NODES
 10
80.5000
 20
55.0000
 30
0.0000
  0
TEXT
  8
NODE-TEXT
 10
81.0000
 20
55.5000
 30
0.0000
 40
0.9000
  1
RP_L
  0
POINT
  8
NODES
 10
80.5000
 20
-68.0000
 30
0.0000
  0
TEXT
  8
NODE-TEXT
 10
81.0000
 20
-67.5000
 30
0.0000
 40
0.9000
  1
RP_L
  0
POINT
  8
NODES
 10
222.0000
 20
55.0000
 30
0.0000
  0
TEXT
  8
NODE-TEXT
 10
222.5000
 20
55.5000
 30
0.0000
 40
0.9000
  1
RP_L
  0
POINT
  8
NODES
 10
80.5000
 20
55.0000
 30
0.0000
  0
TEXT
  8
NODE-TEXT
 10
81.0000
 20
55.5000
 30
0.0000
 40
0.9000
  1
RP_R
  0
POINT
  8
NODES
 10
80.5000
 20
-52.0000
 30
0.0000
  0
TEXT
  8
NODE-TEXT
 10
81.0000
 20
-51.5000
 30
0.0000
 40
0.9000
  1
RP_R
  0
POINT
  8
NODES
 10
238.0000
 20
55.0000
 30
0.0000
  0
TEXT
  8
NODE-TEXT
 10
238.5000
 20
55.5000
 30
0.0000
 40
0.9000
  1
RP_R
  0
POINT
  8
NODES
 10
184.0000
 20
27.0000
 30
0.0000
  0
TEXT
  8
NODE-TEXT
 10
184.5000
 20
27.5000
 30
0.0000
 40
0.9000
  1
TP_C
  0
POINT
  8
NODES
 10
184.0000
 20
-60.0000
 30
0.0000
  0
TEXT
  8
NODE-TEXT
 10
184.5000
 20
-59.5000
 30
0.0000
 40
0.9000
  1
TP_C
  0
POINT
  8
NODES
 10
230.0000
 20
27.0000
 30
0.0000
  0
TEXT
  8
NODE-TEXT
 10
230.5000
 20
27.5000
 30
0.0000
 40
0.9000
  1
TP_C
  0
TEXT
  8
DIM-TEXT
 10
0
 20
86
 30
0
 40
3.2000
  1
NUTHATCH rev H - STEEL FRAME CENTRELINES - INCHES - TUBE SIZES PROVISIONAL, NOT FOR FABRICATION
  0
ENDSEC
  0
EOF
